# xmcd CD database file
#
# Track frame offsets:
#	150
#	43650
#	75825
#	105750
#	142575
#	174900
#	198900
#	213150
#	232887
#	244575
#	250050
#	254970
#	259740
#	264287
#	270562
#
# Disc length: 3732 seconds
#
# Revision: 2
# Processed by: cddbd v1.5.1PL0 Copyright (c) Steve Scherf et al.
# Submitted via: CDex 1.51
#
DISCID=b50e920f
DTITLE=モーツァルト [M.ペライア R.ルプー] - 2台のピアノのための協奏曲 他
DYEAR=1991
DGENRE=Classical
TTITLE0=2台のピアノのための協奏曲 変ホ長調 K365 (1)
TTITLE1=2台のピアノのための協奏曲 変ホ長調 K365 (2)
TTITLE2=2台のピアノのための協奏曲 変ホ長調 K365 (3)
TTITLE3=3台のピアノのための協奏曲 ヘ長調 K242 “ロードゥロン協奏曲” (1)
TTITLE4=3台のピアノのための協奏曲 ヘ長調 K242 “ロードゥロン協奏曲” (2)
TTITLE5=3台のピアノのための協奏曲 ヘ長調 K242 “ロードゥロン協奏曲” (3)
TTITLE6=幻想曲 ヘ短調 K608 (1)
TTITLE7=幻想曲 ヘ短調 K608 (2)
TTITLE8=幻想曲 ヘ短調 K608 (3)
TTITLE9=四手のためのアンダンテと変奏曲 ト長調 K501 (1)
TTITLE10=四手のためのアンダンテと変奏曲 ト長調 K501 (2)
TTITLE11=四手のためのアンダンテと変奏曲 ト長調 K501 (3)
TTITLE12=四手のためのアンダンテと変奏曲 ト長調 K501 (4)
TTITLE13=四手のためのアンダンテと変奏曲 ト長調 K501 (5)
TTITLE14=四手のためのアンダンテと変奏曲 ト長調 K501 (6)
EXTD=YEAR: 1991
EXTT0=
EXTT1=
EXTT2=
EXTT3=
EXTT4=
EXTT5=
EXTT6=
EXTT7=
EXTT8=
EXTT9=
EXTT10=
EXTT11=
EXTT12=
EXTT13=
EXTT14=
PLAYORDER=
